<svg width="24" height="24" viewBox="0 0 24 24" fill="none" xmlns="http://www.w3.org/2000/svg">
<path d="M17.5 5.5H6.5C5.94772 5.5 5.5 5.94772 5.5 6.5V17.5C5.5 18.0523 5.94772 18.5 6.5 18.5H17.5C18.0523 18.5 18.5 18.0523 18.5 17.5V6.5C18.5 5.94772 18.0523 5.5 17.5 5.5Z" stroke="black"/>
<path d="M9.5 10.5C10.0523 10.5 10.5 10.0523 10.5 9.5C10.5 8.94772 10.0523 8.5 9.5 8.5C8.94772 8.5 8.5 8.94772 8.5 9.5C8.5 10.0523 8.94772 10.5 9.5 10.5Z" stroke="black"/>
<path d="M8 16L9.5 13.5L11 16L13.5 12L16 16" stroke="black" stroke-linecap="round" stroke-linejoin="round"/>
</svg>
