<svg width="24" height="24" viewBox="0 0 24 24" fill="none" xmlns="http://www.w3.org/2000/svg">
<path d="M16.211 11.1059L9.737 7.86795C9.55398 7.77637 9.35058 7.73311 9.14614 7.7423C8.94169 7.75148 8.74299 7.81281 8.56892 7.92043C8.39485 8.02806 8.2512 8.17842 8.15163 8.35721C8.05205 8.53601 7.99985 8.7373 8 8.94195V15.0579C7.99985 15.2626 8.05205 15.4639 8.15163 15.6427C8.2512 15.8215 8.39485 15.9718 8.56892 16.0795C8.74299 16.1871 8.94169 16.2484 9.14614 16.2576C9.35058 16.2668 9.55398 16.2235 9.737 16.1319L16.211 12.8939C16.3769 12.8108 16.5164 12.6832 16.6138 12.5253C16.7113 12.3674 16.7629 12.1855 16.7629 11.9999C16.7629 11.8144 16.7113 11.6325 16.6138 11.4746C16.5164 11.3167 16.3769 11.1891 16.211 11.1059Z" stroke="black" stroke-linecap="round" stroke-linejoin="round"/>
<path d="M12 21C16.9706 21 21 16.9706 21 12C21 7.02944 16.9706 3 12 3C7.02944 3 3 7.02944 3 12C3 16.9706 7.02944 21 12 21Z" stroke="black"/>
</svg>
