<svg width="70" height="70" viewBox="0 0 70 70" fill="none" xmlns="http://www.w3.org/2000/svg">
<rect width="70" height="70" rx="35" fill="#1D1D1D"/>
<path d="M53.175 18.325C49.85 16.775 46.25 15.65 42.5 15C42.4672 14.9989 42.4345 15.0051 42.4042 15.0181C42.374 15.031 42.347 15.0505 42.3251 15.075C41.875 15.9 41.35 16.975 41 17.8C37.0225 17.2 32.9776 17.2 29 17.8C28.65 16.95 28.125 15.9 27.6501 15.075C27.625 15.025 27.55 15 27.475 15C23.725 15.65 20.15 16.775 16.8 18.325C16.775 18.325 16.75 18.35 16.725 18.375C9.92505 28.55 8.05005 38.45 8.97505 48.25C8.97505 48.3 9.00005 48.35 9.05005 48.375C13.55 51.675 17.875 53.675 22.15 55C22.225 55.025 22.3 55 22.325 54.95C23.325 53.575 24.225 52.125 25 50.6C25.05 50.5 25 50.4 24.9 50.375C23.475 49.825 22.125 49.175 20.8 48.425C20.7 48.375 20.7 48.225 20.775 48.15C21.05 47.95 21.325 47.725 21.6 47.525C21.65 47.475 21.725 47.475 21.775 47.5C30.375 51.425 39.65 51.425 48.1501 47.5C48.2001 47.475 48.275 47.475 48.3251 47.525C48.6 47.75 48.875 47.95 49.15 48.175C49.25 48.25 49.25 48.4 49.125 48.45C47.825 49.225 46.4501 49.85 45.0251 50.4C44.925 50.425 44.9001 50.55 44.925 50.625C45.725 52.15 46.625 53.6 47.6001 54.975C47.6751 55 47.75 55.025 47.825 55C52.125 53.675 56.45 51.675 60.95 48.375C61 48.35 61.025 48.3 61.025 48.25C62.125 36.925 59.2 27.1 53.275 18.375C53.25 18.35 53.225 18.325 53.175 18.325ZM26.3001 42.275C23.725 42.275 21.575 39.9 21.575 36.975C21.575 34.05 23.6751 31.675 26.3001 31.675C28.9501 31.675 31.05 34.075 31.025 36.975C31.025 39.9 28.9251 42.275 26.3001 42.275ZM43.725 42.275C41.15 42.275 39 39.9 39 36.975C39 34.05 41.1 31.675 43.725 31.675C46.375 31.675 48.475 34.075 48.45 36.975C48.45 39.9 46.375 42.275 43.725 42.275Z" fill="#BBBBBB"/>
</svg>
