<svg width="256" height="288" viewBox="0 0 256 288" fill="none" xmlns="http://www.w3.org/2000/svg">
<g clip-path="url(#clip0_38_917)">
<path d="M255.987 84.59C255.985 79.753 254.95 75.478 252.857 71.809C250.803 68.201 247.724 65.177 243.596 62.786C209.516 43.135 175.401 23.544 141.332 3.87301C132.147 -1.42999 123.242 -1.23699 114.124 4.14301C100.559 12.143 32.644 51.053 12.405 62.775C4.071 67.6 0.015 74.984 0.013 84.58C0 124.101 0.013 163.62 0 203.141C0 207.871 0.993 212.064 2.993 215.678C5.049 219.395 8.17 222.502 12.394 224.947C32.634 236.669 100.558 275.577 114.12 283.578C123.241 288.96 132.147 289.153 141.335 283.848C175.405 264.176 209.521 244.586 243.607 224.935C247.831 222.491 250.952 219.382 253.008 215.668C255.005 212.054 256 207.862 256 203.129C256 203.129 256 124.111 255.987 84.59Z" fill="#649AD2"/>
<path d="M128.392 143.476L2.99219 215.678C5.04919 219.395 8.17019 222.502 12.3942 224.947C32.6342 236.669 100.558 275.577 114.12 283.578C123.241 288.96 132.147 289.153 141.335 283.848C175.405 264.176 209.521 244.586 243.607 224.935C247.831 222.491 250.952 219.382 253.008 215.668L128.392 143.476Z" fill="#004482"/>
<path d="M91.25 164.863C98.547 177.601 112.264 186.193 128 186.193C143.833 186.193 157.628 177.493 164.888 164.617L128.392 143.476L91.25 164.863Z" fill="#1A4674"/>
<path d="M255.987 84.59C255.985 79.753 254.95 75.478 252.857 71.809L128.392 143.476L253.008 215.668C255.005 212.054 255.998 207.862 256 203.129C256 203.129 256 124.111 255.987 84.59Z" fill="#01589C"/>
<path d="M249.135 148.636H239.397V158.376H229.657V148.636H219.92V138.9H229.657V129.162H239.397V138.9H249.135V148.636ZM128 58.847C159.135 58.847 186.358 75.587 201.17 100.556L201.614 101.315L164.613 122.622C157.28 110.013 143.635 101.528 128 101.528C104.62 101.528 85.6671 120.481 85.6671 143.86C85.6593 151.229 87.5843 158.471 91.2501 164.863C98.5471 177.601 112.264 186.193 128 186.193C143.659 186.193 157.325 177.683 164.647 165.04L164.888 164.617L201.835 186.023C187.185 211.62 159.607 228.874 128 228.874C96.4511 228.874 68.9161 211.689 54.2461 186.167C47.0841 173.708 42.9861 159.263 42.9861 143.86C42.9861 96.91 81.0471 58.847 128 58.847ZM203.865 129.161V138.899H213.602V148.636H203.865V158.376H194.127V148.636H184.389V138.9H194.127V129.162L203.865 129.161Z" fill="white"/>
</g>
<defs>
<clipPath id="clip0_38_917">
<rect width="256" height="288" fill="white"/>
</clipPath>
</defs>
</svg>
