<svg width="16" height="16" viewBox="0 0 16 16" fill="none" xmlns="http://www.w3.org/2000/svg">
<g clip-path="url(#clip0_38_923)">
<path d="M6.99994 5.50002C6.58631 5.5001 6.17915 5.60281 5.81498 5.79895C5.4508 5.99508 5.14098 6.27852 4.91328 6.62384C4.68559 6.96917 4.54714 7.36559 4.51033 7.77759C4.47353 8.18958 4.53953 8.60427 4.70242 8.98449C4.8653 9.3647 5.11998 9.69856 5.44363 9.95614C5.76728 10.2137 6.14978 10.387 6.55685 10.4604C6.96393 10.5337 7.38285 10.505 7.77607 10.3766C8.1693 10.2483 8.52453 10.0244 8.80994 9.72502C8.8779 9.65371 8.95924 9.59649 9.04931 9.55661C9.13939 9.51674 9.23643 9.495 9.33491 9.49263C9.43339 9.49026 9.53137 9.50732 9.62325 9.54281C9.71514 9.57831 9.79913 9.63156 9.87044 9.69952C9.94175 9.76748 9.99897 9.84882 10.0388 9.93889C10.0787 10.029 10.1005 10.126 10.1028 10.2245C10.1052 10.323 10.0881 10.4209 10.0526 10.5128C10.0171 10.6047 9.9639 10.6887 9.89594 10.76C9.3449 11.3382 8.6334 11.7381 7.85307 11.9083C7.07274 12.0786 6.25931 12.0113 5.51754 11.7152C4.77578 11.4191 4.13964 10.9077 3.69104 10.2469C3.24244 9.58612 3.00194 8.80616 3.00049 8.00748C2.99905 7.2088 3.23673 6.42797 3.68294 5.76555C4.12914 5.10314 4.76343 4.58946 5.50412 4.29068C6.24481 3.9919 7.05799 3.92169 7.83893 4.0891C8.61987 4.25652 9.33281 4.65388 9.88594 5.23002C10.0239 5.3735 10.0991 5.56589 10.0952 5.76487C10.0912 5.96384 10.0084 6.15311 9.86494 6.29102C9.72146 6.42893 9.52907 6.5042 9.33009 6.50026C9.13112 6.49632 8.94185 6.4135 8.80394 6.27002C8.57104 6.02622 8.29105 5.83226 7.98095 5.6999C7.67086 5.56754 7.33711 5.49954 6.99994 5.50002Z" fill="black"/>
<path d="M6.586 0.102222C6.70072 0.0352765 6.83117 0 6.964 0C7.09683 0 7.22728 0.0352765 7.342 0.102222L12.057 2.85222C12.2289 2.95247 12.3539 3.11689 12.4045 3.3093C12.4551 3.50172 12.4273 3.70636 12.327 3.87822C12.2267 4.05008 12.0623 4.17508 11.8699 4.22571C11.6775 4.27635 11.4729 4.24847 11.301 4.14822L6.964 1.61822L1.5 4.80622V11.1942L6.964 14.3822L11.301 11.8522C11.3862 11.8012 11.4806 11.7675 11.5789 11.7532C11.6771 11.739 11.7772 11.7443 11.8734 11.7691C11.9696 11.7938 12.0598 11.8373 12.139 11.8972C12.2182 11.9571 12.2848 12.0321 12.3347 12.1179C12.3847 12.2037 12.4172 12.2986 12.4302 12.397C12.4432 12.4954 12.4366 12.5955 12.4107 12.6913C12.3847 12.7872 12.34 12.8769 12.2791 12.9553C12.2183 13.0338 12.1424 13.0993 12.056 13.1482L7.342 15.8982C7.22728 15.9652 7.09683 16.0004 6.964 16.0004C6.83117 16.0004 6.70072 15.9652 6.586 15.8982L0.372 12.2732C0.258767 12.2071 0.164832 12.1125 0.0995602 11.9988C0.0342887 11.8851 -3.88154e-05 11.7563 3.29368e-08 11.6252V4.37522C-3.88154e-05 4.24412 0.0342887 4.1153 0.0995602 4.0016C0.164832 3.8879 0.258767 3.7933 0.372 3.72722L6.586 0.102222Z" fill="black"/>
<path d="M12.1802 5.25C12.3128 5.25 12.44 5.30268 12.5337 5.39645C12.6275 5.49021 12.6802 5.61739 12.6802 5.75V10.25C12.6802 10.3826 12.6275 10.5098 12.5337 10.6036C12.44 10.6973 12.3128 10.75 12.1802 10.75C12.0476 10.75 11.9204 10.6973 11.8266 10.6036C11.7329 10.5098 11.6802 10.3826 11.6802 10.25V5.75C11.6802 5.61739 11.7329 5.49021 11.8266 5.39645C11.9204 5.30268 12.0476 5.25 12.1802 5.25ZM14.3202 5.25C14.4528 5.25 14.58 5.30268 14.6737 5.39645C14.7675 5.49021 14.8202 5.61739 14.8202 5.75V10.25C14.8202 10.3826 14.7675 10.5098 14.6737 10.6036C14.58 10.6973 14.4528 10.75 14.3202 10.75C14.1876 10.75 14.0604 10.6973 13.9666 10.6036C13.8729 10.5098 13.8202 10.3826 13.8202 10.25V5.75C13.8202 5.61739 13.8729 5.49021 13.9666 5.39645C14.0604 5.30268 14.1876 5.25 14.3202 5.25Z" fill="black"/>
<path d="M10.5 6.93005C10.5 6.79745 10.5527 6.67027 10.6464 6.5765C10.7402 6.48273 10.8674 6.43005 11 6.43005H15.5C15.6326 6.43005 15.7598 6.48273 15.8536 6.5765C15.9473 6.67027 16 6.79745 16 6.93005C16 7.06266 15.9473 7.18984 15.8536 7.28361C15.7598 7.37738 15.6326 7.43005 15.5 7.43005H11C10.8674 7.43005 10.7402 7.37738 10.6464 7.28361C10.5527 7.18984 10.5 7.06266 10.5 6.93005ZM10.5 9.07005C10.5 8.93745 10.5527 8.81027 10.6464 8.7165C10.7402 8.62273 10.8674 8.57005 11 8.57005H15.5C15.6326 8.57005 15.7598 8.62273 15.8536 8.7165C15.9473 8.81027 16 8.93745 16 9.07005C16 9.20266 15.9473 9.32984 15.8536 9.42361C15.7598 9.51738 15.6326 9.57005 15.5 9.57005H11C10.8674 9.57005 10.7402 9.51738 10.6464 9.42361C10.5527 9.32984 10.5 9.20266 10.5 9.07005Z" fill="black"/>
</g>
<defs>
<clipPath id="clip0_38_923">
<rect width="16" height="16" fill="white"/>
</clipPath>
</defs>
</svg>
