<svg width="80" height="80" viewBox="0 0 80 80" fill="none" xmlns="http://www.w3.org/2000/svg">
<rect x="6" y="6" width="69" height="68" rx="34" fill="#BBBBBB"/>
<path d="M51.5109 29.4392C49.405 28.4575 47.125 27.745 44.75 27.3333C44.7292 27.3327 44.7085 27.3366 44.6893 27.3448C44.6702 27.353 44.6531 27.3653 44.6392 27.3808C44.3542 27.9033 44.0217 28.5842 43.8 29.1067C41.2809 28.7267 38.7191 28.7267 36.2 29.1067C35.9784 28.5683 35.6459 27.9033 35.345 27.3808C35.3292 27.3492 35.2817 27.3333 35.2342 27.3333C32.8592 27.745 30.595 28.4575 28.4734 29.4392C28.4575 29.4392 28.4417 29.455 28.4259 29.4708C24.1192 35.915 22.9317 42.185 23.5175 48.3917C23.5175 48.4233 23.5334 48.455 23.565 48.4708C26.415 50.5608 29.1542 51.8275 31.8617 52.6667C31.9092 52.6825 31.9567 52.6667 31.9725 52.635C32.6059 51.7642 33.1759 50.8458 33.6667 49.88C33.6984 49.8167 33.6667 49.7533 33.6034 49.7375C32.7009 49.3892 31.8459 48.9775 31.0067 48.5025C30.9434 48.4708 30.9434 48.3758 30.9909 48.3283C31.165 48.2017 31.3392 48.0592 31.5134 47.9325C31.545 47.9008 31.5925 47.9008 31.6242 47.9167C37.0709 50.4025 42.945 50.4025 48.3284 47.9167C48.36 47.9008 48.4075 47.9008 48.4392 47.9325C48.6134 48.075 48.7875 48.2017 48.9617 48.3442C49.025 48.3917 49.025 48.4867 48.9459 48.5183C48.1225 49.0092 47.2517 49.405 46.3492 49.7533C46.2859 49.7692 46.27 49.8483 46.2859 49.8958C46.7925 50.8617 47.3625 51.78 47.98 52.6508C48.0275 52.6667 48.075 52.6825 48.1225 52.6667C50.8459 51.8275 53.585 50.5608 56.435 48.4708C56.4667 48.455 56.4825 48.4233 56.4825 48.3917C57.1792 41.2192 55.3267 34.9967 51.5742 29.4708C51.5584 29.455 51.5425 29.4392 51.5109 29.4392ZM34.49 44.6075C32.8592 44.6075 31.4975 43.1033 31.4975 41.2508C31.4975 39.3983 32.8275 37.8942 34.49 37.8942C36.1684 37.8942 37.4984 39.4142 37.4825 41.2508C37.4825 43.1033 36.1525 44.6075 34.49 44.6075ZM45.5259 44.6075C43.895 44.6075 42.5334 43.1033 42.5334 41.2508C42.5334 39.3983 43.8634 37.8942 45.5259 37.8942C47.2042 37.8942 48.5342 39.4142 48.5184 41.2508C48.5184 43.1033 47.2042 44.6075 45.5259 44.6075Z" fill="#131313"/>
</svg>
