<svg width="256" height="185" viewBox="0 0 256 185" fill="none" xmlns="http://www.w3.org/2000/svg">
<g clip-path="url(#clip0_43_1596)">
<path d="M250.716 70.497C244.951 66.497 231.74 64.997 221.412 66.997C220.212 56.997 214.687 48.248 205.079 40.498L199.555 36.498L195.711 42.248C190.908 49.748 188.506 60.248 189.226 70.248C189.466 73.747 190.667 79.997 194.27 85.497C190.908 87.497 183.942 89.997 174.815 89.997H1.15522L0.675216 91.997C-1.00678 101.996 -1.00678 133.245 18.6892 157.244C33.5812 175.493 55.6792 184.743 84.7422 184.743C147.672 184.743 194.27 154.493 216.128 99.746C224.775 99.996 243.27 99.746 252.638 80.996C252.878 80.496 253.358 79.496 255.039 75.747L256 73.747L250.716 70.497ZM139.986 0H113.566V24.999H139.986V0ZM139.986 29.999H113.566V54.998H139.986V29.999ZM108.761 29.999H82.3412V54.998H108.761V29.999ZM77.5362 29.999H51.1152V54.998H77.5362V29.999ZM46.3112 59.998H19.8902V84.997H46.3102L46.3112 59.998ZM77.5362 59.998H51.1152V84.997H77.5362V59.998ZM108.761 59.998H82.3412V84.997H108.761V59.998ZM139.987 59.998H113.565V84.997H139.987V59.998ZM171.212 59.998H144.79V84.997H171.212V59.998Z" fill="#2396ED"/>
</g>
<defs>
<clipPath id="clip0_43_1596">
<rect width="256" height="185" fill="white"/>
</clipPath>
</defs>
</svg>
