<svg width="60" height="60" viewBox="0 0 60 60" fill="none" xmlns="http://www.w3.org/2000/svg">
<path d="M13.0566 54.5409L9.28641 12.2545H50.7136L46.9397 54.5344L29.9747 59.2373L13.0566 54.5409Z" fill="#E44D26"/>
<path d="M30 55.6425L43.7081 51.8419L46.9336 15.7125H30V55.6425Z" fill="#F16529"/>
<path d="M30 31.3959H23.137L22.6636 26.0845H30V20.8983H16.9955L17.1192 22.29L18.3942 36.5817H30V31.3959ZM30 44.8645L29.977 44.8706L24.2016 43.3106L23.8322 39.1748H18.6258L19.3523 47.318L29.9761 50.2673L30 50.2603V44.8645Z" fill="#EBEBEB"/>
<path d="M13.1409 0.76265H15.7762V3.36702H18.1875V0.76265H20.8233V8.64796H18.1875V6.00749H15.7767V8.64796H13.1409V0.76265ZM24.2887 3.37781H21.9684V0.76265H29.2458V3.37781H26.9245V8.64796H24.2887V3.37781ZM30.4008 0.76265H33.1486L34.8394 3.53343L36.5283 0.76265H39.2775V8.64796H36.652V4.73952L34.8394 7.54312H34.7934L32.9794 4.73952V8.64796H30.4003V0.76265H30.4008ZM40.5895 0.76265H43.2258V6.04171H46.9322V8.64843H40.5895V0.76265Z" fill="black"/>
<path d="M29.9822 31.3959V36.5817H36.3684L35.7666 43.3078L29.9822 44.8692V50.2645L40.6144 47.318L40.6922 46.4414L41.9109 32.7881L42.0375 31.3959H40.6397H29.9822ZM29.9822 20.8983V26.0845H42.5095L42.6131 24.9188L42.8498 22.29L42.9741 20.8983H29.9822Z" fill="white"/>
</svg>
