<svg width="256" height="346" viewBox="0 0 256 346" fill="none" xmlns="http://www.w3.org/2000/svg">
<g clip-path="url(#clip0_38_910)">
<path d="M82.5538 267.473C82.5538 267.473 69.3558 275.148 91.9468 277.745C119.316 280.867 133.303 280.42 163.464 274.711C163.464 274.711 171.394 279.683 182.467 283.99C114.856 312.967 29.4478 282.311 82.5538 267.473ZM74.2918 229.659C74.2918 229.659 59.4888 240.617 82.0968 242.955C111.333 245.971 134.421 246.218 174.373 238.525C174.373 238.525 179.899 244.127 188.588 247.191C106.841 271.095 15.7898 249.076 74.2918 229.659Z" fill="#5382A1"/>
<path d="M143.942 165.515C160.602 184.695 139.565 201.955 139.565 201.955C139.565 201.955 181.866 180.118 162.439 152.772C144.295 127.272 130.38 114.6 205.707 70.9141C205.707 70.9141 87.4691 100.445 143.942 165.515Z" fill="#E76F00"/>
<path d="M233.364 295.442C233.364 295.442 243.131 303.489 222.607 309.715C183.581 321.538 60.1748 325.108 25.8928 310.186C13.5698 304.826 36.6798 297.386 43.9488 295.824C51.5298 294.18 55.8628 294.487 55.8628 294.487C42.1578 284.832 -32.7202 313.444 17.8288 321.637C155.682 343.993 269.121 311.571 233.364 295.442ZM88.8998 190.48C88.8998 190.48 26.1288 205.39 66.6718 210.803C83.7898 213.095 117.915 212.577 149.702 209.913C175.68 207.723 201.765 203.063 201.765 203.063C201.765 203.063 192.605 206.986 185.978 211.511C122.234 228.276 -0.908195 220.477 34.5428 203.328C64.5238 188.836 88.8998 190.48 88.8998 190.48ZM201.506 253.422C266.306 219.75 236.345 187.392 215.433 191.752C210.307 192.818 208.022 193.742 208.022 193.742C208.022 193.742 209.925 190.762 213.559 189.472C254.929 174.927 286.746 232.369 200.204 255.119C200.204 255.12 201.207 254.224 201.506 253.422Z" fill="#5382A1"/>
<path d="M162.439 0.370995C162.439 0.370995 198.326 36.271 128.402 91.472C72.331 135.754 115.616 161.002 128.379 189.849C95.649 160.319 71.629 134.323 87.744 110.129C111.395 74.612 176.918 57.394 162.439 0.370995Z" fill="#E76F00"/>
<path d="M95.268 344.665C157.467 348.647 252.98 342.456 255.242 313.025C255.242 313.025 250.894 324.183 203.838 333.043C150.75 343.033 85.274 341.867 46.439 335.464C46.44 335.464 54.388 342.044 95.268 344.665Z" fill="#5382A1"/>
</g>
<defs>
<clipPath id="clip0_38_910">
<rect width="256" height="346" fill="white"/>
</clipPath>
</defs>
</svg>
