<svg width="67" height="60" viewBox="0 0 67 60" fill="none" xmlns="http://www.w3.org/2000/svg">
<g clip-path="url(#clip0_38_984)">
<path d="M55.0873 19.4273C54.3743 19.1814 53.6552 18.9535 52.9308 18.7439C53.0525 18.2439 53.1645 17.75 53.264 17.2647C54.8966 9.29601 53.8293 2.87627 50.1838 0.762586C46.6885 -1.26373 40.9723 0.849165 35.1993 5.90101C34.6304 6.39976 34.074 6.91291 33.5309 7.43995C33.1673 7.0895 32.7972 6.74585 32.4209 6.40916C26.3705 1.00759 20.306 -1.26899 16.6644 0.850744C13.1723 2.88338 12.1383 8.91838 13.6081 16.4705C13.7543 17.2184 13.9194 17.9625 14.1032 18.7021C13.2448 18.9473 12.4165 19.2084 11.6237 19.4863C4.53009 21.9731 0 25.8702 0 29.9126C0 34.0876 4.86326 38.2752 12.2516 40.8144C12.8506 41.0194 13.4546 41.2094 14.0629 41.3842C13.8654 42.1807 13.69 42.9826 13.5369 43.7889C12.1356 51.21 13.2299 57.1023 16.7126 59.1221C20.3096 61.2079 26.347 59.0642 32.2254 53.8971C32.7021 53.4769 33.1683 53.045 33.6235 52.6015C34.2118 53.1722 34.8157 53.7263 35.4346 54.2631C41.1291 59.19 46.7529 61.1794 50.2322 59.1542C53.8259 57.0623 54.9939 50.7323 53.4775 43.031C53.3581 42.4277 53.2241 41.8273 53.0758 41.2305C53.4998 41.1042 53.9159 40.9742 54.3216 40.8389C62.0025 38.2802 67 34.1434 67 29.9126C67 25.8555 62.3236 21.9321 55.0873 19.4273ZM53.4215 38.1073C53.0548 38.2291 52.6796 38.3471 52.2961 38.4613C51.4481 35.7621 50.3039 32.8921 48.9035 29.9265C50.2398 27.0318 51.3401 24.1984 52.1642 21.5168C52.8497 21.7163 53.5147 21.9265 54.1559 22.1484C60.356 24.2947 64.1378 27.4676 64.1378 29.9126C64.1378 32.5168 60.0535 35.8976 53.4215 38.1073ZM50.6698 43.59C51.3403 46.9952 51.4358 50.0742 50.9917 52.4813C50.5929 54.6442 49.7904 56.086 48.798 56.6636C46.6867 57.8926 42.1713 56.2952 37.3015 52.0815C36.7258 51.5824 36.164 51.0673 35.6168 50.5368C37.5048 48.4607 39.3916 46.0473 41.233 43.3668C44.472 43.0779 47.5321 42.6052 50.3071 41.9602C50.444 42.515 50.5649 43.0582 50.6698 43.59ZM22.8418 56.4513C20.7789 57.1836 19.1358 57.2047 18.1426 56.6289C16.0292 55.4034 15.1506 50.6721 16.349 44.3257C16.4915 43.5758 16.6546 42.83 16.8382 42.0892C19.5826 42.6997 22.6204 43.1386 25.867 43.4034C27.721 46.0263 29.6622 48.4371 31.6185 50.5481C31.2027 50.9526 30.7771 51.3468 30.3421 51.7302C27.7424 54.015 25.1376 55.636 22.8418 56.4513ZM13.1775 38.0913C9.9105 36.9684 7.21245 35.5092 5.36314 33.9168C3.70123 32.486 2.86242 31.0652 2.86242 29.9126C2.86242 27.4594 6.49952 24.3305 12.5659 22.2039C13.3021 21.946 14.0726 21.7026 14.8722 21.4742C15.7107 24.2163 16.8105 27.0834 18.1376 29.9826C16.7932 32.9247 15.6777 35.8376 14.8311 38.6121C14.2757 38.4521 13.7244 38.2784 13.1775 38.0913ZM16.4171 15.9176C15.158 9.44732 15.9942 4.56653 18.0986 3.34153C20.34 2.0368 25.2964 3.89706 30.5206 8.56127C30.8613 8.86609 31.1964 9.17711 31.5259 9.49416C29.5792 11.596 27.6558 13.9889 25.8183 16.5963C22.6672 16.89 19.6509 17.3615 16.8777 17.9934C16.7068 17.3055 16.5532 16.6132 16.4171 15.9176ZM45.3179 23.0936C44.6629 21.956 43.9836 20.8327 43.2804 19.7244C45.4181 19.9963 47.4664 20.3571 49.3897 20.7981C48.8124 22.6592 48.0927 24.6047 47.2455 26.5994C46.6262 25.418 45.9836 24.2492 45.3179 23.0936ZM33.5322 11.5513C34.8523 12.9894 36.1745 14.595 37.475 16.3371C34.8369 16.2118 32.1943 16.2112 29.5562 16.3355C30.8579 14.6094 32.1914 13.006 33.5322 11.5513ZM21.6708 23.1131C21.0135 24.2594 20.3828 25.4209 19.7794 26.5968C18.9461 24.6092 18.2329 22.6547 17.6506 20.7673C19.5622 20.3373 21.6007 19.9857 23.7248 19.7189C23.0139 20.8339 22.329 21.9658 21.6708 23.1131ZM23.7858 40.3107C21.5913 40.0644 19.5221 39.731 17.6111 39.3126C18.2025 37.3915 18.9314 35.3955 19.7828 33.3652C20.3886 34.542 21.0219 35.7042 21.6821 36.851C22.361 38.03 23.064 39.1847 23.7858 40.3107ZM33.6112 48.4765C32.2545 47.005 30.9014 45.3768 29.58 43.6257C30.8629 43.6763 32.1707 43.7021 33.5 43.7021C34.8656 43.7021 36.2156 43.6713 37.5443 43.6118C36.2397 45.3944 34.9224 47.025 33.6112 48.4765ZM47.2724 33.2615C48.168 35.3142 48.9228 37.2997 49.5222 39.1879C47.5797 39.6336 45.4823 39.9926 43.2723 40.2592C43.9805 39.1304 44.6662 37.9875 45.3292 36.8313C46.0032 35.656 46.6511 34.4658 47.2724 33.2615ZM42.8499 35.3934C41.8349 37.1661 40.763 38.9051 39.6357 40.6079C37.5937 40.7534 35.5472 40.8256 33.5 40.8244C31.4149 40.8244 29.3868 40.7592 27.4339 40.6318C26.2771 38.9331 25.1847 37.191 24.159 35.4092C23.138 33.6369 22.1846 31.8262 21.3005 29.981C22.1824 28.1354 23.1331 26.3239 24.1506 24.5502L24.1504 24.5505C25.1673 22.7763 26.251 21.0416 27.3991 19.3502C29.3915 19.1986 31.4348 19.1197 33.4997 19.1197C35.5741 19.1197 37.6202 19.1994 39.6122 19.3521C40.7486 21.0409 41.8254 22.7696 42.8405 24.535C43.8612 26.3048 44.8245 28.1075 45.7288 29.9402C44.8338 31.7917 43.8735 33.6105 42.8499 35.3934ZM48.7543 3.25548C50.9977 4.55653 51.8703 9.80311 50.4607 16.6834C50.3703 17.1227 50.27 17.5692 50.1597 18.0228C47.3797 17.3776 44.3613 16.8978 41.2011 16.5997C39.3601 13.9636 37.4525 11.5671 35.5375 9.49232C36.0394 9.00589 36.5532 8.53206 37.0785 8.07127C42.025 3.74311 46.648 2.03416 48.7543 3.25548ZM33.5 23.8968C36.8042 23.8968 39.4829 26.5902 39.4829 29.9126C39.4829 33.235 36.8042 35.9284 33.5 35.9284C30.1958 35.9284 27.5171 33.235 27.5171 29.9126C27.5171 26.5902 30.1958 23.8968 33.5 23.8968Z" fill="#00D8FF"/>
</g>
<defs>
<clipPath id="clip0_38_984">
<rect width="67" height="60" fill="white"/>
</clipPath>
</defs>
</svg>
