<svg width="80" height="80" viewBox="0 0 80 80" fill="none" xmlns="http://www.w3.org/2000/svg">
<path d="M39.9998 6.66675C21.5998 6.66675 6.6665 21.6001 6.6665 40.0001C6.6665 58.4001 21.5998 73.3334 39.9998 73.3334C58.3998 73.3334 73.3332 58.4001 73.3332 40.0001C73.3332 21.6001 58.3998 6.66675 39.9998 6.66675ZM55.4665 29.3334C54.9665 34.6001 52.7998 47.4001 51.6998 53.3001C51.2332 55.8001 50.2998 56.6334 49.4332 56.7334C47.4998 56.9001 46.0332 55.4668 44.1665 54.2334C41.2332 52.3001 39.5665 51.1001 36.7332 49.2334C33.4332 47.0668 35.5665 45.8668 37.4665 43.9334C37.9665 43.4334 46.4998 35.6667 46.6665 34.9667C46.6897 34.8607 46.6866 34.7507 46.6575 34.6461C46.6285 34.5415 46.5744 34.4456 46.4998 34.3668C46.2998 34.2001 46.0332 34.2667 45.7998 34.3001C45.4998 34.3667 40.8332 37.4667 31.7332 43.6001C30.3998 44.5001 29.1998 44.9667 28.1332 44.9334C26.9332 44.9001 24.6665 44.2667 22.9665 43.7001C20.8665 43.0334 19.2332 42.6667 19.3665 41.5001C19.4332 40.9001 20.2665 40.3001 21.8332 39.6667C31.5665 35.4334 38.0332 32.6334 41.2665 31.3001C50.5332 27.4334 52.4332 26.7667 53.6998 26.7667C53.9665 26.7667 54.5998 26.8334 54.9998 27.1667C55.3332 27.4334 55.4332 27.8001 55.4665 28.0667C55.4332 28.2667 55.4998 28.8667 55.4665 29.3334Z" fill="#BBBBBB"/>
</svg>
