<svg width="256" height="257" viewBox="0 0 256 257" fill="none" xmlns="http://www.w3.org/2000/svg">
<g clip-path="url(#clip0_43_1512)">
<path d="M255.153 37.9379L134.897 252.976C132.414 257.416 126.035 257.442 123.515 253.024L0.875166 37.9579C-1.87083 33.1439 2.24617 27.3119 7.70217 28.2879L128.087 49.8049C128.855 49.943 129.642 49.9416 130.409 49.8009L248.276 28.3179C253.714 27.3269 257.85 33.1139 255.153 37.9379Z" fill="url(#paint0_linear_43_1512)"/>
<path d="M185.432 0.0631082L96.4399 17.5011C95.729 17.6407 95.0846 18.0125 94.6079 18.558C94.1311 19.1035 93.8491 19.7919 93.8059 20.5151L88.3319 112.971C88.3018 113.478 88.3903 113.985 88.5904 114.452C88.7905 114.919 89.0967 115.333 89.4847 115.661C89.8727 115.989 90.3318 116.222 90.8255 116.341C91.3192 116.461 91.834 116.463 92.3289 116.349L117.106 110.631C119.424 110.096 121.519 112.138 121.042 114.469L113.681 150.516C113.186 152.942 115.463 155.016 117.832 154.296L133.136 149.647C135.508 148.927 137.788 151.007 137.286 153.435L125.588 210.056C124.856 213.598 129.567 215.529 131.531 212.493L132.844 210.465L205.36 65.7451C206.575 63.3221 204.48 60.5591 201.82 61.0731L176.315 65.9951C173.919 66.4571 171.88 64.2251 172.556 61.8811L189.202 4.17611C189.879 1.82611 187.831 -0.406892 185.432 0.0631082Z" fill="url(#paint1_linear_43_1512)"/>
</g>
<defs>
<linearGradient id="paint0_linear_43_1512" x1="-211.967" y1="1773.92" x2="12757.5" y2="19387.6" gradientUnits="userSpaceOnUse">
<stop stop-color="#41D1FF"/>
<stop offset="1" stop-color="#BD34FE"/>
</linearGradient>
<linearGradient id="paint1_linear_43_1512" x1="5180.13" y1="479.787" x2="7848.21" y2="18782.2" gradientUnits="userSpaceOnUse">
<stop stop-color="#FFEA83"/>
<stop offset="0.08333" stop-color="#FFDD35"/>
<stop offset="1" stop-color="#FFA800"/>
</linearGradient>
<clipPath id="clip0_43_1512">
<rect width="256" height="257" fill="white"/>
</clipPath>
</defs>
</svg>
